<svg xmlns="http://www.w3.org/2000/svg" fill="none" viewBox="0 0 96 96" id="Bing--Streamline-Svg-Logos" height="24" width="24">
  <desc>
    Bing Streamline Icon: https://streamlinehq.com
  </desc>
  <path fill="url(#a)" d="M48.3461 30.6432c-1.7326.2013-3.0539 1.6084-3.1767 3.3828-.053.7646-.0364.8165 1.6967 5.2761 3.9428 10.1463 4.8981 12.5882 5.0587 12.9319.3892.8324.9365 1.6154 1.6203 2.3182.5247.5393.8708.8293 1.4561 1.2202 1.0287.687 1.5392.877 5.542 2.0622 3.8991 1.1545 6.0294 1.9218 7.865 2.8329 2.3781 1.1803 4.0374 2.5229 5.0869 4.116.753 1.143 1.4199 3.1928 1.7101 5.2561.1134.8065.1141 2.5894.0013 3.3185-.2448 1.5825-.7338 2.9086-1.4818 4.0184-.3979.5901-.2595.4913.3189-.2279 1.637-2.0352 3.3045-5.5137 4.1553-8.668 1.0297-3.8175 1.1698-7.9169.4031-11.7969-1.4931-7.5557-6.2629-14.0763-12.9808-17.7452-.4221-.2306-2.0298-1.0733-4.2094-2.2066-.3308-.172-.7818-.4075-1.0023-.5232-.2205-.1159-.6715-.3513-1.0022-.5233-.3308-.1719-1.2829-.668-2.1158-1.1023-.833-.4343-1.765-.9203-2.0713-1.0799-.9334-.4868-1.5598-.8137-2.0267-1.0582-2.1598-1.1306-3.074-1.5877-3.3347-1.667-.2733-.0832-.9678-.1899-1.142-.1756-.0367.003-.2035.0214-.3707.0408Z"></path>
  <path fill="url(#b)" d="M53.0546 68.5212c-.1197.0709-.2876.1735-.3734.2279-.0858.0546-.2762.1729-.4232.2631-.5395.3311-1.9742 1.2152-3.2072 1.9763-.8103.5002-.9305.5747-1.9598 1.2136-.3676.228-.7585.4683-.8687.534-.1103.0658-.5813.3558-1.0468.6446-.4655.2887-1.2772.7899-1.804 1.1137-.5267.3237-1.4688.9049-2.0935 1.2914-.6247.3865-1.4466.8933-1.8263 1.1262-.3797.2328-.7305.4577-.7795.4997-.0728.0624-3.4502 2.1546-5.1449 3.187-1.287.7841-2.776 1.3085-4.3002 1.5145-.7096.0958-2.0524.0962-2.7599.0005-1.9187-.259-3.6862-.9746-5.1999-2.1048-.5938-.4434-1.7116-1.5603-2.139-2.1374-1.0071-1.3596-1.6586-2.818-1.996-4.4681-.0776-.3798-.1511-.7004-.1632-.7127-.0315-.0319.0255.5418.1282 1.2918.1069.78.3346 1.9081.5799 2.873 1.8979 7.4672 7.2985 13.5407 14.6096 16.4303 2.1053.8317 4.2297 1.3558 6.5413 1.6129.8685.0973 3.3271.1358 4.2336.067 4.1572-.3149 7.777-1.5385 11.4903-3.8853.3308-.2091.9522-.6008 1.3808-.8708.4288-.2699.97-.613 1.2028-.7624.2327-.1494.5133-.326.6235-.3922.1103-.0664.3308-.2049.4901-.308.1592-.103.8407-.5341 1.5144-.9579l2.6941-1.7017.925-.5842.0333-.0211.1019-.0643.0485-.0307.681-.4301 2.3537-1.4867c2.999-1.8845 3.8933-2.5461 5.2866-3.9109.5809-.5689 1.4566-1.5401 1.5001-1.6634.0088-.025.1645-.2652.3459-.5336.7373-1.091 1.229-2.4274 1.4728-4.0035.1128-.7292.1121-2.512-.0014-3.3186-.2193-1.5593-.7175-3.3281-1.2547-4.4543-.881-1.8468-2.7577-3.5248-5.4537-4.8763-.7444-.3731-1.5131-.7146-1.5989-.7101-.0407.0021-2.5495 1.5356-5.5751 3.4079s-5.6516 3.4973-5.8353 3.6113c-.1837.1142-.4994.307-.7016.4286l-1.7312 1.0738Z"></path>
  <path fill="url(#c)" d="m16.9236 59.5386.013 13.0402.1687.7572c.5278 2.3675 1.4422 4.0745 3.0318 5.6599.7477.7458 1.3195 1.1954 2.1298 1.6749 1.7145 1.0146 3.5598 1.5152 5.581 1.5143 2.1169-.0012 3.9482-.5292 5.8352-1.6826.3185-.1946 1.5663-.9629 2.7728-1.7072l2.1938-1.3534V46.4985l-.0006-14.1538c-.0005-9.0299-.017-14.3926-.0456-14.8133-.1799-2.6438-1.2856-5.0743-3.1448-6.9127-.5707-.5643-1.0582-.9411-2.5106-1.94056-.7227-.49739-2.0457-1.40852-2.9399-2.02474-.8942-.61626-2.3674-1.63146-3.2739-2.25605-.9065-.62455-2.1994-1.51564-2.8731-1.98014-1.4035-.96772-1.5134-1.03503-1.9376-1.18683-.5519-.19742-1.1367-.269937-1.6927-.20989-1.6205.17501-2.9178 1.34504-3.255 2.93575-.0524.24748-.0621 3.54109-.0628 21.41726l-.0007 21.125h-.0018l.013 13.0401Z"></path>
  <defs>
    <radialGradient id="a" cx="0" cy="0" r="1" gradientTransform="matrix(-3180.4289 -2641.00561 3645.00696 -4389.49673 711.987 -3486.53)" gradientUnits="userSpaceOnUse">
      <stop stop-color="#00cacc"></stop>
      <stop offset="1" stop-color="#048fce"></stop>
    </radialGradient>
    <radialGradient id="b" cx="0" cy="0" r="1" gradientTransform="matrix(4828.53307 -3448.14055 2702.90591 3784.959 1068.84 2034.67)" gradientUnits="userSpaceOnUse">
      <stop stop-color="#00bbec"></stop>
      <stop offset="1" stop-color="#2756a9"></stop>
    </radialGradient>
    <linearGradient id="c" x1="1103.87" x2="1103.87" y1="1" y2="8119.51" gradientUnits="userSpaceOnUse">
      <stop stop-color="#00bbec"></stop>
      <stop offset="1" stop-color="#2756a9"></stop>
    </linearGradient>
  </defs>
</svg>